<svg xmlns="http://www.w3.org/2000/svg" width="52" height="52" viewBox="0 0 52 52">
  <path fill="#04C6C2" fill-rule="evenodd" d="M12.6084483,41.5967858 C22.7914534,42.9870963 32.7935328,44.3525666 42.994334,45.7447309 C39.5189284,39.9588146 36.1328734,34.3208273 32.7197537,28.636867 L12.6084483,41.5967858 Z M45.8683839,9.57033359 C44.9707994,10.9183787 44.0713612,12.2653116 43.174889,13.6140982 C40.0961853,18.2458714 37.0178524,22.8776446 33.9421147,27.5116423 C33.7708285,27.769684 33.5487495,27.9743377 33.7901074,28.3721519 C36.7620353,33.2797627 39.7106059,38.2018328 42.6665914,43.1194539 C43.1329943,43.896174 43.6045876,44.6699282 44.207797,45.4151346 C44.8054452,33.4795967 45.4027226,21.543688 46,9.60815004 L45.8683839,9.57033359 L45.8683839,9.57033359 Z M5.29763929,24.8722768 C5.43667035,25.0038929 5.78369186,25.080638 5.94533863,25.0009269 C8.79603137,23.5998646 11.6648908,22.2299453 14.4532977,20.7135799 C15.3627461,20.2193709 16.0619796,19.3332796 16.8453733,18.6147671 C19.4395074,16.2356677 22.0295632,13.8517486 24.6185068,11.4674587 C24.7768169,11.3210126 24.9644161,11.1793863 25.0589572,10.9947531 C25.9887969,9.17733915 26.9026944,7.35065647 27.848847,5.47132736 C26.7206564,5.04718996 25.6510441,4.63232129 24.5680849,4.25489833 C24.4212681,4.2037349 24.1899205,4.30532026 24.0308689,4.39392938 C21.5242317,5.79425016 18.9705093,7.12005029 16.5435832,8.64716739 C15.3293787,9.41128207 14.3402191,10.5372482 13.2650456,11.5178806 C11.5321625,13.0994979 9.80150395,14.6848226 8.09383186,16.2938754 C7.64077599,16.7209788 7.22776108,17.2088851 6.87480757,17.7227439 C5.70694672,19.4233717 4.57393631,21.148469 3.38902098,22.9225053 C4.05117955,23.6072796 4.6532767,24.2620232 5.29763929,24.8722768 L5.29763929,24.8722768 Z M15.7164411,22.5473068 C14.2983244,28.5382476 12.8887349,34.4954503 11.4320602,40.6484086 C18.2623778,36.2472415 24.9351269,31.9476598 31.5637568,27.6769966 C26.2887332,25.9696953 21.0307641,24.2675844 15.7164411,22.5473068 Z M44.1273444,9.62817051 C38.356258,10.5924899 32.7230904,11.5334521 27.017256,12.486649 C28.9607247,17.2140756 30.8652648,21.8465903 32.8239343,26.6107211 C36.6133647,20.9163799 40.3279037,15.3362295 44.1273444,9.62817051 L44.1273444,9.62817051 Z M15.9544623,21.3219798 C21.1512577,23.0088899 26.2446141,24.6624326 31.4858994,26.3641727 C29.5394647,21.6222869 27.6597648,17.0461261 25.7411363,12.3731996 C22.4729796,15.3610697 19.2537619,18.3048205 15.9544623,21.3219798 Z M5.51230324,28.3658491 C3.66930759,32.7714652 1.88896859,37.0272984 0.0763743925,41.3598768 C3.55993649,41.2568085 6.93672274,41.1570769 10.4295536,41.0540085 C8.78972863,36.8230155 7.18215889,32.6750703 5.51230324,28.3658491 Z M10.5519009,38.0409275 L10.6801802,38.0127506 C11.9233032,32.8441321 13.1842222,27.7111056 14.4532977,22.3404286 C11.6222546,23.8119333 8.92171544,25.2152201 6.1473971,26.6574355 C7.56328935,30.3374949 9.07298123,34.2196126 10.5519009,38.0409275 L10.5519009,38.0409275 Z M42.0385418,8.78990594 C40.3853699,8.35205081 38.732198,7.91271268 37.0782846,7.47782354 C34.7010389,6.85273992 32.3219395,6.23544204 29.9461768,5.60479718 C29.6492065,5.52582754 29.4345426,5.47429336 29.2599196,5.83206661 C28.420172,7.55234418 27.554472,9.25964553 26.7013774,10.9736204 C26.6750542,11.0266375 26.6806154,11.0952262 26.6602242,11.2283253 C31.8084515,10.4482684 36.922199,9.6730312 42.0352051,8.89816479 L42.0385418,8.78990594 Z M32.4476236,4.87701595 L45.9217719,8.6045312 C45.1491299,6.40265005 44.4324712,4.36093268 43.6954212,2.26100763 L32.4672733,4.75059038 L32.4476236,4.87701595 Z M11.69418,42.5892821 C10.0254366,42.3968631 8.3122033,42.5737106 6.61973193,42.6029998 C5.22942139,42.6263571 3.83911085,42.6793742 2.4488003,42.7227519 C2.305691,42.7272009 2.16295246,42.7561194 2.02021391,42.9103512 C13.51456,43.9729192 25.0085353,45.0354872 36.5025106,46.0987967 L36.5258678,45.9453064 C32.8413595,45.4421994 29.1564805,44.9390923 25.4719721,44.436356 C20.8806106,43.8094186 16.2970348,43.1198246 11.69418,42.5892821 Z M0.303643823,37.3939697 C1.78478799,33.957122 3.25962941,30.5180499 4.74670557,27.0837974 C4.89537611,26.7393712 4.88388288,26.5054283 4.59284454,26.2281076 C3.97072691,25.6360207 3.39272847,24.9979609 2.71277393,24.2905709 C1.79368598,28.8285445 0.897213737,33.254181 0,37.6794468 L0.100473109,37.726532 C0.169061762,37.6164194 0.252851144,37.5122388 0.303643823,37.3939697 Z M29.4964577,3.96979198 C31.994197,3.32542938 34.5282696,2.82158084 37.0475124,2.25952463 C37.2106421,2.22282044 37.3700644,2.16906176 37.5305989,2.12308883 L37.5057587,2 C33.9573155,2.47715458 30.4092429,2.95467991 26.6820984,3.45630395 C27.6983228,3.90009108 28.4813457,4.23154111 29.4964577,3.96979198 Z"/>
</svg>
