<svg xmlns="http://www.w3.org/2000/svg" width="66" height="40" viewBox="0 0 66 40">
  <path fill="#04C6C2" fill-rule="evenodd" d="M3.58605757,11.3085972 L22.6586649,39.7118286 L14.7768683,29.2489673 L3.35972656,12.6654319 L3.30943078,29.2489673 L2.20292365,29.2489673 L2.20292365,11.3085972 L3.58605757,11.3085972 Z M29.3752143,11.3085972 L29.3752143,12.2634068 L18.4107345,12.2634068 L18.4107345,19.4496055 L28.7213691,19.4496055 L28.7213691,20.4044151 L18.4107345,20.4044151 L18.4107345,28.2941577 L29.5009537,28.2941577 L29.5009537,29.2489673 L17.3042274,29.2489673 L17.3042274,11.3085972 L29.3752143,11.3085972 Z M51.1331093,1.28680981 L38.1518275,20.0275166 L44.8411663,29.2489673 L43.5083281,29.2489673 L37.4225389,20.8566934 L31.3116018,29.2489673 L30.0039116,29.2489673 L36.7435457,20.0275166 L30.4565736,11.3085972 L31.7391159,11.3085972 L37.4225389,19.1983398 L43.2317015,11.3085972 L51.1331093,1.28680981 Z M59.0748718,11.3085972 L59.0748718,12.2634068 L52.7376034,12.2634068 L52.7376034,29.2489673 L51.6310963,29.2489673 L51.6310963,12.2634068 L45.3189763,12.2634068 L45.3189763,11.3085972 L59.0748718,11.3085972 Z M60.4351349,25.0905289 L60.4351349,27.8286884 C60.4351349,28.6064225 59.9830003,29.0542897 59.2348251,29.0542897 C58.5324017,29.0542897 58.0506629,28.6198316 58.0506629,27.9547349 L58.0506629,27.9547349 L58.6427439,27.9547349 C58.6508177,28.273874 58.8849589,28.4884214 59.2294423,28.4884214 C59.6142952,28.4884214 59.8322886,28.257783 59.8322886,27.8260066 L59.8322886,27.8260066 L59.8322886,25.0905289 L60.4351349,25.0905289 Z M62.7415598,24.9966645 C63.5301041,24.9966645 64.1060375,25.4552592 64.1410241,26.1069466 L64.1410241,26.1069466 L63.5543257,26.1069466 C63.497809,25.7502618 63.1856206,25.527669 62.733486,25.527669 C62.2571297,25.527669 61.9395592,25.7556254 61.9395592,26.1042649 C61.9395592,26.3804944 62.144096,26.538723 62.6500564,26.656724 L62.6500564,26.656724 L63.0779697,26.7613158 C63.8745878,26.9463629 64.2029236,27.2681836 64.2029236,27.8501432 C64.2029236,28.5903314 63.6269902,29.0542897 62.7065731,29.0542897 C61.8453643,29.0542897 61.2667399,28.611786 61.2236792,27.9198712 L61.2236792,27.9198712 L61.8211429,27.9198712 C61.8722771,28.2872834 62.2329084,28.5206035 62.7523251,28.5206035 C63.2367551,28.5206035 63.5920036,28.2711924 63.5920036,27.9279166 C63.5920036,27.6329142 63.3659364,27.4559127 62.8519022,27.3352297 L62.8519022,27.3352297 L62.3513247,27.2145469 C61.6489012,27.0509546 61.3286388,26.7130426 61.3286388,26.1444924 C61.3286388,25.4552592 61.8938075,24.9966645 62.7415598,24.9966645 Z M56.9633866,28.2068282 C57.1921454,28.2068282 57.3590045,28.3811478 57.3590045,28.6064225 C57.3590045,28.8316969 57.1921454,29.0060166 56.9633866,29.0060166 C56.7373195,29.0060166 56.5677687,28.8316969 56.5677687,28.6064225 C56.5677687,28.3811478 56.7373195,28.2068282 56.9633866,28.2068282 Z"/>
</svg>
