<svg xmlns="http://www.w3.org/2000/svg" width="46" height="60" viewBox="0 0 46 60">
  <path fill="#04C6C2" d="M43.0004313,50.6951116 C42.6245363,55.4661527 26.8711191,56.4685193 16.6194376,55.8245407 L16.6194376,55.8245407 L16.625133,55.8077413 C9.88180469,55.3877553 8.57186761,54.3181909 8.57186761,54.3181909 C14.9506917,55.3709559 25.771911,55.5557497 34.5257079,53.9430034 C41.6572405,52.619912 42.8389042,50.9844401 42.9831142,50.7292593 L42.9946746,50.7075693 C42.9987511,50.6993464 43.0004313,50.6951116 43.0004313,50.6951116 Z M3.8617895,52.0838653 C-4.48194016,50.7567095 7.84855453,46.1144641 10.126706,47.6824119 C9.46492846,47.6721863 8.80455612,47.7455845 8.16180035,47.9008046 C6.9771616,48.1583961 3.14986718,49.362356 5.16033583,50.2303271 C10.8557144,52.6494465 31.1882161,52.0670659 37.6239939,50.1519297 C41.0070488,49.1439632 39.3952566,47.8392067 39.3952566,47.8392067 L39.3952566,47.8392067 L39.4066474,47.8392067 C45.3013642,50.4543196 26.5920455,55.7069447 3.8617895,52.0838653 Z M14.472,43.339 L14.4373289,43.3632277 C14.0718235,43.6071477 12.8135008,44.6067144 16.0726812,44.9889016 C20.5834211,45.4928848 22.9071356,45.4200873 27.8678103,44.496118 C28.8665632,45.0847827 29.9145048,45.5887214 31.0002686,46.0024679 C19.9602328,50.653729 6.05102811,45.8265626 14.2677484,43.3985855 L14.472,43.339 Z M13.151,37.184 C13.1167195,37.2114645 13.0121598,37.2926324 12.890433,37.4096826 L12.8073245,37.4928164 C12.3004453,38.0209285 11.7087427,39.0533279 14.4494983,39.33309 C19.2677886,39.8202738 23.0779969,39.8594725 29.66755,38.6163139 C30.3507149,39.2385577 31.1573616,39.7151873 32.0368275,40.0162672 C18.6906759,43.8525875 3.85970158,40.3948544 12.909255,37.2662593 L13.151,37.184 Z M33.8992163,41.2986245 C33.9885502,41.2216195 34.0620209,41.1284707 34.1156407,41.0242337 L34.1384222,41.0298335 C44.8229524,35.5700153 39.8850592,30.3229901 36.4165736,31.0285666 C36.0002812,31.10469 35.5908175,31.2132966 35.1920672,31.3533558 C35.4175978,31.0367892 35.7352695,30.7947246 36.1033278,30.6589789 C42.9377821,28.3014574 48.1718351,37.6139473 33.8992163,41.2986245 Z M15.5714879,30.7989742 L15.5356955,30.8074411 C14.8780468,30.9639723 5.45335324,33.2482168 11.9036641,34.0916646 C14.7513534,34.4612523 20.3556059,34.3772551 25.5725728,33.9460694 C29.8554975,33.5932812 34.1555083,32.8261067 34.1555083,32.8261067 C33.2514956,33.2132444 32.3810264,33.672077 31.5527203,34.198061 C21.0675283,36.9587691 0.763503541,35.6876114 6.60696199,32.9045041 C9.38225395,31.5115371 12.4555119,30.7897101 15.5714879,30.7989742 Z M34.8332584,11.440419 C23.9022321,17.6741314 24.3679409,20.0136707 26.6747694,23.3016884 L26.834794,23.527398 C27.1058826,23.9062198 27.3979416,24.2987107 27.696949,24.711977 C30.8977518,29.1190302 23.9095222,32.6805116 23.9095222,32.6805116 C23.9095222,32.6805116 27.3780078,29.8806048 24.6328353,26.7727083 L24.6328353,26.7727083 L24.6499214,26.7783081 C15.3379774,16.2282595 34.8332584,11.440419 34.8332584,11.440419 Z M27.696949,3.55271368e-15 L27.6987009,0.00174277956 L27.7122954,0.0156367344 C28.0362984,0.351914679 33.268624,6.08682928 22.087001,14.772308 C15.4431639,19.9321862 17.2612133,23.4980916 19.5918563,26.8319345 L19.7956193,27.1212821 C19.863842,27.2175584 19.9323016,27.313673 20.0008048,27.4096589 L20.2062512,27.6972639 C20.9244152,28.7027628 21.6260313,29.6977359 22.087001,30.7205768 C16.6593052,25.9327363 12.7237986,21.7160767 15.3835404,17.7962073 C16.6339924,15.9484071 18.5962479,14.4058219 20.6055859,12.8571323 L21.3019854,12.3203254 L21.3019854,12.3203254 L21.7653156,11.9607662 C21.8423488,11.9006681 21.9192626,11.8404724 21.9960191,11.7801614 L22.4543683,11.4167699 C26.0252473,8.55714491 29.0816291,5.3645522 27.696949,3.55271368e-15 Z"/>
</svg>
