<svg xmlns="http://www.w3.org/2000/svg" width="56" height="50" viewBox="0 0 56 50">
  <path fill="#04C6C2" fill-rule="evenodd" d="M39.3575214,0 L39.6706947,0.00805337267 C40.4985581,0.0510046936 41.2662952,0.265761298 41.9258051,0.652323186 C45.1447208,2.50629435 45.8752548,8.29709316 44.2315532,15.5756466 C51.3542601,17.7615015 56,21.2863355 56,25.0057221 C56,28.7136645 51.3770893,32.2384985 44.3000408,34.4243534 C45.955157,41.6800183 45.2360375,47.4593729 42.0285365,49.313344 C41.2751733,49.7482261 40.4076641,49.9542229 39.4488382,49.9542229 C36.3098247,49.9542229 32.2005707,47.7340352 28.0456584,43.8658732 C23.890746,47.7569238 19.7814921,50 16.6424786,50 C15.6836527,50 14.8161435,49.7940032 14.0741949,49.3591211 C10.8552792,47.5051499 10.1247452,41.7143511 11.7684468,34.4357977 C4.64573991,32.2499428 1.77635684e-14,28.7251087 1.77635684e-14,25.0057221 C1.77635684e-14,21.2977798 4.62291072,17.78439 11.7227884,15.5870909 C10.0676722,8.33142596 10.7867917,2.55207141 13.9942927,0.698100252 C14.7476559,0.263218128 15.6151651,0 16.573991,0 L16.573991,0 L16.8454039,0.00553381998 C19.9478563,0.130791616 23.9409702,2.37648367 27.9771708,6.1341268 C32.1320832,2.24307622 36.2185079,0 39.3575214,0 L39.3575214,0 Z M14.21117,35.1224537 C13.9600489,36.2783246 13.7545862,37.4113069 13.6290257,38.487068 C13.1039543,42.8587778 13.7774154,46.2577249 15.3298002,47.1503777 C15.6722381,47.3449302 16.1059927,47.4479286 16.6196494,47.4593729 C18.993885,47.4593729 22.4867509,45.5596246 26.2079087,42.0920119 C24.5984509,40.4097047 23.0004077,38.487068 21.4594374,36.3698787 C18.8911537,36.0952163 16.4484305,35.6717784 14.21117,35.1224537 Z M41.8116592,35.0995651 C39.5743987,35.6603342 37.1316755,36.083772 34.5519772,36.3584344 C33.0338361,38.4756237 31.4357929,40.3868162 29.8377497,42.0691234 C33.5589075,45.5138476 37.0631879,47.4021515 39.426009,47.4021515 C39.9510803,47.4021515 40.3962495,47.3105974 40.7386873,47.1046006 C42.2796576,46.2005035 42.941704,42.8015564 42.4052181,38.4298466 C42.2796576,37.3655299 42.0741949,36.255436 41.8116592,35.0995651 Z M31.1618426,36.6216526 C30.1231146,36.6788739 29.0615573,36.7017624 27.9885854,36.7017624 C26.9270281,36.7017624 25.8768854,36.6674296 24.849572,36.6216526 C25.8997146,37.9606317 26.9612719,39.1851682 28.0228292,40.2838178 C29.0729719,39.1851682 30.1345291,37.9606317 31.1618426,36.6216526 Z M28,15.8731975 C26.2649817,15.8731975 24.5413779,15.9533074 22.8406033,16.1020829 C21.893192,17.4639506 20.9800245,18.9288167 20.0896861,20.4737926 C19.2335915,21.9729915 18.4345699,23.5065232 17.7268651,25.0400549 C18.4459845,26.5735866 19.2335915,28.0956741 20.1011007,29.594873 C20.9914391,31.1284047 21.9160212,32.5818265 22.8634325,33.9436942 C24.5527925,34.0810254 26.2763962,34.1611353 28,34.1611353 C29.7350183,34.1611353 31.4586221,34.0810254 33.1593967,33.9322499 C34.106808,32.5703822 35.0199755,31.1055161 35.9103139,29.5605402 C36.7664085,28.0613413 37.5540155,26.5278096 38.2731349,24.9942779 C37.5540155,23.4607462 36.7664085,21.9386587 35.8988993,20.4394598 C35.0085609,18.9059281 34.0839788,17.4525063 33.1365675,16.0906386 C31.4472075,15.9533074 29.7236038,15.8731975 28,15.8731975 Z M39.5972279,28.0727855 C39.1292295,28.9883268 38.638402,29.9153124 38.1133306,30.8308537 C37.5882593,31.7578393 37.0289442,32.6619364 36.469629,33.5431449 C38.101916,33.3028153 39.67713,32.9938201 41.1724419,32.6276036 C40.7386873,31.1398489 40.213616,29.6063172 39.5972279,28.0727855 Z M16.3913575,28.1185626 C15.7977986,29.64065 15.2727273,31.1627375 14.8503873,32.6390478 C16.3456991,33.0052644 17.9094986,33.3028153 19.530371,33.5431449 C18.9710558,32.6733806 18.4231553,31.7807279 17.8866694,30.8651865 C17.3501834,29.9496452 16.8593559,29.0341039 16.3913575,28.1185626 Z M12.3505911,18.0590524 C11.2433755,18.4138247 10.1704036,18.7914855 9.18874847,19.2149233 C5.14798206,20.9315633 2.53403995,23.2089723 2.53403995,25.0057221 C2.53403995,26.802472 5.14798206,29.0684367 9.18874847,30.7965209 C10.1818182,31.2199588 11.2547901,31.6090639 12.3848349,31.9638361 C13.0240522,29.7322042 13.8687322,27.4090181 14.9188748,25.0286107 C13.8573176,22.636759 13.001223,20.3021286 12.3505911,18.0590524 Z M43.6037505,18.0476081 C42.9645332,20.2792401 42.1198532,22.6024262 41.0697106,24.9828336 C42.1312678,27.3746853 42.9873624,29.7093156 43.6379943,31.9523919 C44.7452099,31.5976196 45.8181818,31.2199588 46.7998369,30.7965209 C50.8406033,29.079881 53.4545455,26.802472 53.46596,25.0057221 C53.46596,23.2089723 50.8520179,20.9430076 46.8112515,19.2149233 C45.8067672,18.7914855 44.7337954,18.4023804 43.6037505,18.0476081 Z M27.9885854,19.7756924 C30.869562,19.7756924 33.205055,22.1172565 33.205055,25.0057221 C33.205055,27.8941878 30.869562,30.2357519 27.9885854,30.2357519 C25.1076088,30.2357519 22.7721158,27.8941878 22.7721158,25.0057221 C22.7721158,22.1172565 25.1076088,19.7756924 27.9885854,19.7756924 Z M19.5189564,16.4682994 C17.8866694,16.708629 16.3114554,17.0176242 14.8161435,17.3723964 C15.2498981,18.8601511 15.7749694,20.3936828 16.3913575,21.9272145 C16.8593559,21.0116732 17.3501834,20.0961318 17.8752548,19.1805905 C18.4003261,18.2536049 18.9596413,17.3495079 19.5189564,16.4682994 Z M36.4582144,16.4682994 C37.0175296,17.3380636 37.5768447,18.2307164 38.101916,19.1462577 C38.638402,20.061799 39.1292295,20.9773404 39.5972279,21.8928817 C40.1907868,20.3707942 40.7158581,18.8487068 41.1381981,17.3723964 C39.6428863,17.0061799 38.0790868,16.708629 36.4582144,16.4682994 Z M16.573991,2.57495995 L16.353919,2.58253385 C15.9238251,2.61256253 15.5548308,2.73027499 15.2613127,2.90684367 C13.7203424,3.81094072 13.058296,7.20988785 13.5947819,11.5815976 C13.731757,12.6459144 13.9258051,13.7560082 14.1883408,14.9004349 C16.4256013,14.3396658 18.8683245,13.916228 21.4480228,13.6415656 C22.9661639,11.5243763 24.5642071,9.61318379 26.1622503,7.93087663 C22.4410925,4.48615244 18.9368121,2.57495995 16.573991,2.57495995 L16.573991,2.57495995 Z M39.3575214,2.57495995 L39.1386866,2.5801224 C36.7727499,2.69016976 33.4004867,4.55689881 29.7920913,7.91943236 C31.4015491,9.60173953 32.9995923,11.5243763 34.5405626,13.6415656 C37.1088463,13.916228 39.5515695,14.3396658 41.78883,14.8889906 C42.0399511,13.7331197 42.2454138,12.6001373 42.3709743,11.5243763 C42.8960457,7.15266651 42.2225846,3.75371939 40.6701998,2.86106661 C40.3163473,2.66651408 39.8825927,2.57495995 39.3575214,2.57495995 L39.3575214,2.57495995 Z M27.9657562,9.72762646 C26.9156135,10.826276 25.8540563,12.0508125 24.8267428,13.3897917 C25.8654709,13.3325704 26.9270281,13.3096818 28,13.3096818 C29.0615573,13.3096818 30.1117,13.3440146 31.1390135,13.3897917 C30.0888708,12.0508125 29.0273135,10.826276 27.9657562,9.72762646 Z"/>
</svg>
