<svg xmlns="http://www.w3.org/2000/svg" width="50" height="56" viewBox="0 0 50 56">
  <path fill="#04C6C2" fill-rule="evenodd" d="M42.1698094,12.5509308 L62.8294149,24.409428 C64.1673476,25.1779059 65,26.6105829 65,28.1495934 L65,51.8321707 C65,53.3706675 64.1673476,54.8023171 62.8294149,55.5759319 L42.1698094,67.4241553 C41.5093764,67.803771 40.7599892,68 39.9945697,68 C39.2400108,68 38.4880377,67.803771 37.8281219,67.4241553 L30.9295193,63.3701263 C30.1684395,62.9471597 30.2448084,62.7259697 30.4734419,62.5918498 L30.5593427,62.547942 L30.5593427,62.547942 L30.7423018,62.4773358 L30.7423018,62.4773358 L31.4149203,62.242212 L31.4149203,62.242212 L31.779433,62.1070337 L31.779433,62.1070337 L32.1080787,61.9743355 L32.1080787,61.9743355 L32.4276456,61.8314519 C32.4816385,61.8060855 32.5363691,61.779767 32.5923958,61.7522325 L32.9485721,61.5703226 L32.9485721,61.5703226 L33.3626397,61.3465631 L33.3626397,61.3465631 L33.8613867,61.0682885 L33.8613867,61.0682885 C34.0139534,60.9830162 34.2166861,61.0148649 34.3744246,61.1073288 L39.6739209,64.2326091 C39.865793,64.3379153 40.1367929,64.3379153 40.3136669,64.2326091 L60.9748239,52.3874678 C61.166696,52.2785659 61.2908181,52.0587072 61.2908181,51.8321707 L61.2908181,28.1495934 C61.2908181,27.9179199 61.166696,27.7011434 60.9696521,27.5835088 L40.3172871,15.7491549 C40.1264494,15.6381982 39.8730334,15.6381982 39.6806442,15.7491549 L19.0334509,27.5871046 C18.8327869,27.7011434 18.7055617,27.9240842 18.7055617,28.1495934 L18.7055617,51.8321707 C18.7055617,52.0587072 18.8327869,52.273429 19.0313822,52.3807899 L24.6913497,55.6288418 C27.7623372,57.1539827 29.6422698,55.358128 29.6422698,53.5530269 L29.6422698,30.16993 C29.6422698,29.840142 29.9101666,29.5791883 30.2432276,29.5791883 L32.862721,29.5791883 C33.1906102,29.5791883 33.4616101,29.840142 33.4616101,30.16993 L33.4616101,53.5530269 C33.4616101,57.6240076 31.2294811,59.9587215 27.3439423,59.9587215 L26.9664669,59.9571413 L26.9664669,59.9571413 L26.592177,59.9460801 L26.592177,59.9460801 L26.3373562,59.9287568 C26.2511213,59.9212656 26.1633564,59.9119017 26.0733551,59.9001967 L25.7959353,59.8575907 C25.2724419,59.7648876 24.6599273,59.5872065 23.8408635,59.2466512 L23.3729108,59.0442727 C23.1279859,58.9345388 22.8661085,58.8116369 22.5848943,58.6739867 L17.1669649,55.5759319 C15.828515,54.807454 15,53.3706675 15,51.8321707 L15,28.1495934 C15,26.6105829 15.828515,25.1743101 17.1669649,24.409428 L37.8281219,12.5509308 C39.1350242,11.8163564 40.8732507,11.8163564 42.1698094,12.5509308 Z M45.5479473,28.948533 C52.166758,28.948533 55.4420298,31.230337 55.8573217,36.1257876 C55.8723197,36.2947911 55.8123274,36.456603 55.699066,36.5829703 C55.5863217,36.7000913 55.4285832,36.7720077 55.2620528,36.7720077 L52.5804984,36.7720077 C52.302258,36.7720077 52.0565997,36.5757787 52.0002276,36.308147 C51.3879904,33.6012536 49.9393598,32.6485888 46.1362605,32.5639969 L45.5479473,32.5577078 L45.5479473,32.5577078 C42.1100954,32.5577078 40.8701514,33.4184701 40.4472384,34.3607707 L40.380807,34.5277469 C40.3613029,34.583582 40.3443448,34.6395406 40.3296517,34.6954642 L40.2920862,34.8629712 C40.2868641,34.8908186 40.282138,34.9186176 40.2778726,34.9463483 L40.2575299,35.1117554 C40.2549674,35.1391338 40.2527955,35.1664044 40.250979,35.1935473 L40.2432793,35.4338493 L40.2432793,35.4338493 L40.2439568,35.514233 L40.2439568,35.514233 L40.2499299,35.6689153 L40.2499299,35.6689153 L40.2632894,35.8158371 L40.2632894,35.8158371 L40.2855105,35.9554218 C40.2900344,35.978098 40.2949889,36.0004861 40.3004049,36.022595 L40.3386836,36.151968 C40.3903753,36.2991583 40.4676874,36.4335298 40.5811593,36.5581083 L40.6875223,36.6625621 C40.7068073,36.6795949 40.7268917,36.6964454 40.7478062,36.7131226 L40.8835011,36.8111754 L40.8835011,36.8111754 L41.0405941,36.90549 C41.0966887,36.9363523 41.1565955,36.9666621 41.2205604,36.9964901 L41.4248746,37.0845988 L41.4248746,37.0845988 L41.6550119,37.1702397 C41.695602,37.184331 41.7373295,37.1983372 41.7802251,37.212267 L42.0518623,37.295 L42.0518623,37.295 L42.3530099,37.3763237 L42.3530099,37.3763237 L42.6851426,37.4566614 L42.6851426,37.4566614 L43.0497354,37.5364367 L43.0497354,37.5364367 L43.4482633,37.6160729 L43.4482633,37.6160729 L44.1129097,37.7361926 L44.1129097,37.7361926 L44.8622064,37.858381 L44.8622064,37.858381 L45.7011311,37.9840672 L45.7011311,37.9840672 L47.991481,38.2976124 L47.991481,38.2976124 L48.6445718,38.3936231 L48.6445718,38.3936231 L49.2713969,38.4940683 L49.2713969,38.4940683 L49.8720479,38.5997856 C50.0679128,38.6359964 50.2594306,38.6732255 50.4466167,38.7116125 L50.9951951,38.8303868 C54.8337599,39.7084979 56.6770447,41.1863751 56.6770447,44.6514743 C56.6770447,49.123132 52.9233856,51.6838688 46.3764623,51.6838688 C38.6652403,51.6838688 36.1530348,48.6851975 35.5809161,45.6576954 L35.5285184,45.3445245 C35.5056463,45.1880094 35.4876639,45.0316911 35.4741205,44.8759806 L35.4528184,44.5654919 L35.4528184,44.5654919 L35.4425515,44.2573547 C35.4417155,44.206235 35.4413058,44.1552438 35.4413058,44.1043962 C35.4413058,43.7751219 35.7076511,43.5131408 36.0386433,43.5131408 L38.7098543,43.5131408 C39.0082645,43.5131408 39.2570258,43.7263215 39.3035716,44.0155281 L39.3571356,44.3395724 C39.3668075,44.3924649 39.3768713,44.4447999 39.3873565,44.4965772 L39.4555599,44.8005455 C39.9839672,46.9309915 41.4004376,48.0293047 46.0470124,48.0781276 L46.3764623,48.0798308 C50.7295276,48.0798308 52.5820499,47.1017681 52.5820499,44.8081493 L52.5768503,44.6022034 L52.5768503,44.6022034 L52.5660641,44.4680437 L52.5660641,44.4680437 L52.5476944,44.3363892 C52.5401428,44.2929215 52.5310804,44.2498705 52.5202605,44.2072356 L52.4822815,44.0805786 L52.4822815,44.0805786 L52.4322766,43.956414 C52.356928,43.7925208 52.2455615,43.6352626 52.0823819,43.4845938 L51.9500354,43.3728271 C51.9262763,43.354405 51.9016458,43.3360856 51.8761132,43.317869 L51.7118453,43.2098009 C51.6825808,43.1919947 51.6523525,43.174291 51.6211295,43.1566897 L51.4216084,43.0523106 C51.3509581,43.0179268 51.2760822,42.983952 51.1967341,42.9503854 L50.9450258,42.8509101 L50.9450258,42.8509101 L50.6650028,42.7538802 L50.6650028,42.7538802 L50.3551842,42.6592915 C50.3009825,42.64373 50.2454777,42.6282699 50.1886388,42.6129113 L49.8313502,42.5219766 L49.8313502,42.5219766 L49.4405641,42.4334724 L49.4405641,42.4334724 L49.0147996,42.3473945 L49.0147996,42.3473945 L48.5525758,42.2637386 L48.5525758,42.2637386 L48.052412,42.1825006 L48.052412,42.1825006 L47.5128273,42.1036761 L47.5128273,42.1036761 L46.626297,41.9899555 L46.626297,41.9899555 L45.6427402,41.8816413 L45.6427402,41.8816413 L44.980649,41.8151639 L44.980649,41.8151639 L44.3705353,41.7473964 C44.2703682,41.7355554 44.1709661,41.7234304 44.0723374,41.7110051 L43.4899149,41.6327184 L43.4899149,41.6327184 L42.926464,41.5464416 C42.8341592,41.5313528 42.7426619,41.5158985 42.6519806,41.5000625 L42.1177533,41.400334 L42.1177533,41.400334 L41.6035192,41.2906603 C38.1588271,40.5054625 36.1431128,38.9689103 36.1431128,35.5581619 C36.1431128,31.4178332 39.6568024,28.948533 45.5479473,28.948533 Z" transform="translate(-15 -12)"/>
</svg>
